<svg width="24" height="24" viewBox="0 0 24 24" fill="none" xmlns="http://www.w3.org/2000/svg">
<g clip-path="url(#clip0_135_472)">
<path d="M4.84204 13.657V7.69102C4.84191 7.4951 4.88042 7.30108 4.95536 7.12006C5.03031 6.93903 5.14022 6.77457 5.27881 6.63608C5.41739 6.49759 5.58193 6.38779 5.763 6.31296C5.94407 6.23814 6.13812 6.19976 6.33404 6.20002H7.82504M4.84204 10.674H7.07904M10.209 13.657V7.69102C10.2039 7.49191 10.2387 7.29377 10.3113 7.10831C10.3839 6.92284 10.493 6.7538 10.632 6.61114C10.771 6.46849 10.9371 6.35511 11.1207 6.2777C11.3042 6.20028 11.5014 6.1604 11.7005 6.1604C11.8997 6.1604 12.0969 6.20028 12.2804 6.2777C12.4639 6.35511 12.6301 6.46849 12.7691 6.61114C12.9081 6.7538 13.0172 6.92284 13.0898 7.10831C13.1624 7.29377 13.1972 7.49191 13.192 7.69102V13.657M10.209 10.674H13.192M17.666 13.657L19.158 15.148M19.158 12.165C19.1632 12.3641 19.1284 12.5623 19.0558 12.7477C18.9832 12.9332 18.8741 13.1023 18.7351 13.2449C18.5961 13.3876 18.4299 13.5009 18.2464 13.5784C18.0629 13.6558 17.8657 13.6956 17.6665 13.6956C17.4674 13.6956 17.2702 13.6558 17.0867 13.5784C16.9031 13.5009 16.737 13.3876 16.598 13.2449C16.459 13.1023 16.3499 12.9332 16.2773 12.7477C16.2047 12.5623 16.1699 12.3641 16.175 12.165V7.69102C16.1699 7.49191 16.2047 7.29377 16.2773 7.10831C16.3499 6.92284 16.459 6.7538 16.598 6.61114C16.737 6.46849 16.9031 6.35511 17.0867 6.2777C17.2702 6.20028 17.4674 6.1604 17.6665 6.1604C17.8657 6.1604 18.0629 6.20028 18.2464 6.2777C18.4299 6.35511 18.5961 6.46849 18.7351 6.61114C18.8741 6.7538 18.9832 6.92284 19.0558 7.10831C19.1284 7.29377 19.1632 7.49191 19.158 7.69102V12.165Z" stroke="black" stroke-width="1.5" stroke-linecap="round" stroke-linejoin="round"/>
<path d="M22.2 2.57104H1.8C1.52116 2.5721 1.25409 2.68362 1.05729 2.88117C0.860495 3.07871 0.749998 3.3462 0.75 3.62504V17.213C0.749998 17.4919 0.860495 17.7594 1.05729 17.9569C1.25409 18.1545 1.52116 18.266 1.8 18.267H4.243C4.0227 19.4106 3.54912 20.4904 2.857 21.427C5.907 21.471 7.837 20.291 8.995 18.267H22.2C22.4795 18.267 22.7476 18.156 22.9453 17.9583C23.143 17.7607 23.254 17.4926 23.254 17.213V3.62504C23.254 3.34551 23.143 3.07742 22.9453 2.87975C22.7476 2.68209 22.4795 2.57104 22.2 2.57104Z" stroke="black" stroke-width="1.5" stroke-linecap="round" stroke-linejoin="round"/>
</g>
<defs>
<clipPath id="clip0_135_472">
<rect width="24" height="24" fill="white"/>
</clipPath>
</defs>
</svg>
